P3
3 3
255
1 2 3 10 11 12 19 20 21 
4 5 6 13 14 15 22 23 24 
7 8 9 16 17 18 25 26 27 
